<svg width="1441" height="1103" viewBox="0 0 1441 1103" fill="none" xmlns="http://www.w3.org/2000/svg">
<rect width="1440" height="1103" fill="#F6F5F5"/>
<path fill-rule="evenodd" clip-rule="evenodd" d="M241.52 987.276C287.627 987.274 327.758 961.512 348.914 923.421L450.629 985.261C408.37 1055.75 330.915 1103 242.32 1103C108.498 1103 0.00448499 995.252 3.12823e-07 862.327C-0.00672671 729.399 108.482 621.64 242.305 621.633C314.044 621.631 378.479 652.616 422.846 701.821L336.016 781.455C313.391 754.041 279.471 736.583 241.511 736.583C173.402 736.585 118.194 792.706 118.196 861.934C118.198 931.161 173.411 987.279 241.52 987.276ZM356.459 810.818L421.61 804.392C425.281 804.031 428.524 806.714 428.741 810.397C429.705 826.832 428.1 869.496 386.955 884.474C382.367 886.144 375.279 887.805 364.263 889.28C363.056 889.439 361.993 888.39 362.236 887.2C363.897 879.031 364.839 870.596 364.839 861.926C364.837 844.614 361.316 828.163 355.065 813.169C354.618 812.1 355.307 810.932 356.459 810.818ZM271.903 820.375C271.903 811.801 278.742 804.85 287.178 804.85C295.611 804.85 302.45 811.801 302.45 820.373C302.45 828.947 295.611 835.898 287.178 835.898C278.742 835.898 271.903 828.947 271.903 820.375Z" fill="#F04E30" fill-opacity="0.04"/>
<path fill-rule="evenodd" clip-rule="evenodd" d="M1000.51 839.356C1097.5 839.352 1181.93 785.154 1226.44 705.02L1440.42 835.117C1351.52 983.407 1188.57 1082.81 1002.19 1082.81C720.66 1082.82 492.417 856.135 492.408 576.493C492.393 296.846 720.627 70.1471 1002.16 70.1329C1153.08 70.1282 1288.63 135.314 1381.97 238.829L1199.3 406.359C1151.71 348.686 1080.35 311.96 1000.49 311.96C857.203 311.964 741.058 430.027 741.062 575.668C741.067 721.303 857.222 839.361 1000.51 839.356ZM1242.31 468.132L1379.37 454.612C1387.09 453.853 1393.92 459.497 1394.37 467.245C1396.4 501.821 1393.02 591.575 1306.47 623.086C1296.81 626.599 1281.9 630.093 1258.73 633.196C1256.19 633.531 1253.95 631.324 1254.46 628.82C1257.96 611.636 1259.94 593.89 1259.94 575.65C1259.93 539.23 1252.53 504.622 1239.38 473.078C1238.44 470.829 1239.89 468.372 1242.31 468.132ZM1064.42 488.237C1064.42 470.2 1078.81 455.577 1096.56 455.577C1114.3 455.577 1128.69 470.2 1128.69 488.233C1128.69 506.271 1114.3 520.894 1096.56 520.894C1078.81 520.894 1064.42 506.27 1064.42 488.237Z" fill="#F04E30" fill-opacity="0.03"/>
<path d="M1440 0H0V405.68C52.4441 290.986 356.391 203 723.5 203C1076.76 203 1371.53 284.472 1440 392.815V0Z" fill="white"/>
</svg>
